<svg xmlns="http://www.w3.org/2000/svg" width="820" height="460" viewBox="0 0 820 460" font-family="system-ui, -apple-system, 'Segoe UI', Helvetica, Arial, sans-serif">
<rect x="0" y="0" width="820" height="460" fill="#ffffff" />
<line x1="78" y1="357.57" x2="796" y2="357.57" stroke="#e6e6e6" stroke-width="1" />
<text x="70" y="361.57" font-size="11" text-anchor="end" fill="#444">0</text>
<line x1="78" y1="269.23" x2="796" y2="269.23" stroke="#e6e6e6" stroke-width="1" />
<text x="70" y="273.23" font-size="11" text-anchor="end" fill="#444">20</text>
<line x1="78" y1="180.89" x2="796" y2="180.89" stroke="#e6e6e6" stroke-width="1" />
<text x="70" y="184.89" font-size="11" text-anchor="end" fill="#444">40</text>
<line x1="78" y1="92.56" x2="796" y2="92.56" stroke="#e6e6e6" stroke-width="1" />
<text x="70" y="96.56" font-size="11" text-anchor="end" fill="#444">60</text>
<line x1="78" y1="46" x2="78" y2="386" stroke="#333" stroke-width="1.2" />
<line x1="78" y1="386" x2="796" y2="386" stroke="#333" stroke-width="1.2" />
<rect x="85.18" y="169.62" width="57.44" height="216.38" fill="#0072B2" />
<rect x="156.98" y="78.90" width="57.44" height="307.10" fill="#0072B2" />
<rect x="228.78" y="113.28" width="57.44" height="272.72" fill="#0072B2" />
<rect x="300.58" y="117.03" width="57.44" height="268.97" fill="#0072B2" />
<rect x="372.38" y="158.41" width="57.44" height="227.59" fill="#0072B2" />
<rect x="444.18" y="248.53" width="57.44" height="137.47" fill="#0072B2" />
<rect x="515.98" y="248.43" width="57.44" height="137.57" fill="#0072B2" />
<rect x="587.78" y="175.32" width="57.44" height="210.68" fill="#0072B2" />
<rect x="659.58" y="184.93" width="57.44" height="201.07" fill="#009E73" />
<rect x="731.38" y="353.10" width="57.44" height="32.90" fill="#D55E00" />
<text x="113.9" y="402.0" font-size="10" text-anchor="middle" fill="#333">2016-2017</text>
<text x="185.7" y="402.0" font-size="10" text-anchor="middle" fill="#333">2017-2018</text>
<text x="257.5" y="402.0" font-size="10" text-anchor="middle" fill="#333">2018-2019</text>
<text x="329.3" y="402.0" font-size="10" text-anchor="middle" fill="#333">2019-2020</text>
<text x="401.1" y="402.0" font-size="10" text-anchor="middle" fill="#333">2020-2021</text>
<text x="472.9" y="402.0" font-size="10" text-anchor="middle" fill="#333">2021-2022</text>
<text x="544.7" y="402.0" font-size="10" text-anchor="middle" fill="#333">2022-2023</text>
<text x="616.5" y="402.0" font-size="10" text-anchor="middle" fill="#333">2023-2024</text>
<text x="688.3" y="402.0" font-size="10" text-anchor="middle" fill="#333">pooled</text>
<text x="760.1" y="402.0" font-size="10" text-anchor="middle" fill="#333">permutation
null</text>
<line x1="78.00" y1="353.15" x2="796.00" y2="353.15" stroke="#888" stroke-width="1.2" stroke-dasharray="5,4" />
<text x="78" y="24" font-size="15" font-weight="600" fill="#111">Flag-persistence odds ratio: observed vs. permutation null</text>
<text x="78" y="40" font-size="11" fill="#666">200 permutations, seed 20260909; null holds each year&#x27;s flag count fixed</text>
<text x="437.0" y="448" font-size="12" text-anchor="middle" fill="#333">Year pair</text>
<text x="16" y="216.0" font-size="12" text-anchor="middle" fill="#333" transform="rotate(-90 16 216.0)">Odds ratio</text>
<rect x="478.0" y="31.0" width="10" height="10" fill="#0072B2" />
<text x="492.0" y="40.0" font-size="11" fill="#333">year-pair</text>
<rect x="557.6" y="31.0" width="10" height="10" fill="#009E73" />
<text x="571.6" y="40.0" font-size="11" fill="#333">pooled observed</text>
<rect x="675.6" y="31.0" width="10" height="10" fill="#D55E00" />
<text x="689.6" y="40.0" font-size="11" fill="#333">permutation mean</text>
</svg>